<?xml version="1.0" encoding="iso-8859-1"?>
<!-- Generator: Adobe Illustrator 16.0.0, SVG Export Plug-In . SVG Version: 6.00 Build 0)  -->
<!DOCTYPE svg PUBLIC "-//W3C//DTD SVG 1.1//EN" "http://www.w3.org/Graphics/SVG/1.1/DTD/svg11.dtd">
<svg version="1.1" id="Capa_1" xmlns="http://www.w3.org/2000/svg" xmlns:xlink="http://www.w3.org/1999/xlink" x="0px" y="0px"
	 width="590.666px" height="590.667px" viewBox="0 0 590.666 590.667" style="enable-background:new 0 0 590.666 590.667;"
	 xml:space="preserve">
<g>
	<g>
		<path d="M545.773,297.261c9.104-12.636,16.977-23.566,25.414-35.28c-2.611-1.812-4.912-4.051-7.666-5.227
			c-48.947-20.861-98.939-37.85-152.445-42.803c-4.736-0.437-10.734-6.263-12.93-11.057c-4.211-9.201-5.67-19.621-9.225-29.176
			c-1.135-3.052-6.186-7.584-7.924-6.989c-10.518,3.586-20.803,8.05-30.75,13.052c-7.115,3.578-13.064,10.155-20.445,12.399
			c-14.369,4.366-24.729,13.452-34.186,24.121c-6.463,7.291-14.219,8.699-20.686,2.089c-20.437-20.881-40.764-17.507-63.265-3.289
			c-13.064,8.258-28.119,13.362-45.162,21.216c10.91,4.708,19.156,8.266,31.412,13.558c-39.042,7.071-73.693,22.779-107.957-4.468
			c-18.535-14.737-38.523-27.768-58.584-40.404c-8.572-5.398-19.013-7.838-31.375-12.713c19.543,28.605,36.892,53.676,53.754,79.074
			c2.244,3.382,4.117,9.535,2.55,12.505c-8.446,16.034-17.466,31.836-27.43,46.969c-5.985,9.091-14.04,16.818-20.062,27.797
			c11.542-5.137,23.586-9.392,34.504-15.618c16.149-9.208,31.502-19.812,47.193-29.824c15.5-9.895,31.885-14.068,50.417-10.013
			c17.087,3.741,34.48,6.083,52.191,12.162c-4.394,1.184-8.792,2.367-13.533,3.644c15.769,11.783,31.261,23.562,46.998,35.015
			c6.687,4.868,10.535,1.408,14.047-5.047c12.464-22.896,12.514-21.913,37.593-18.181c31.702,4.717,63.647,7.802,95.487,11.604
			c4.027,0.481,8.039,1.057,11.85,1.563c0.094,1.896,0.525,3.235,0.121,3.573c-18.045,15.223-14.598,31.534-3.354,49.005
			c5.492,8.531,9.348,18.12,14.064,27.471c22.15-16.369,21.877-41.354,23.088-64.835c0.674-12.975,3.484-17.177,17.107-17.69
			c17.484-0.661,34.873-4.958,52.205-8.201c27.846-5.214,55.658-10.637,83.379-16.467c6.385-1.343,12.342-4.704,18.494-7.136
			c-0.326-1.832-0.648-3.664-0.975-5.5C576.178,302.042,562.674,299.921,545.773,297.261z"/>
	</g>
</g>
<g>
</g>
<g>
</g>
<g>
</g>
<g>
</g>
<g>
</g>
<g>
</g>
<g>
</g>
<g>
</g>
<g>
</g>
<g>
</g>
<g>
</g>
<g>
</g>
<g>
</g>
<g>
</g>
<g>
</g>
</svg>
